<svg xmlns="http://www.w3.org/2000/svg" viewBox="0 0 64 64">
  <defs>
    <linearGradient id="g" x1="0%" y1="0%" x2="100%" y2="100%">
      <stop offset="0%" stop-color="#00f5ff"/>
      <stop offset="50%" stop-color="#7c3aed"/>
      <stop offset="100%" stop-color="#00ff80"/>
    </linearGradient>
    <filter id="glow" x="-50%" y="-50%" width="200%" height="200%">
      <feGaussianBlur stdDeviation="2" result="coloredBlur"/>
      <feMerge>
        <feMergeNode in="coloredBlur"/>
        <feMergeNode in="SourceGraphic"/>
      </feMerge>
    </filter>
  </defs>
  <rect width="64" height="64" rx="14" fill="#0d1017"/>
  <path d="M44 18c-4-3-9-4-14-2-4 1-8 4-8 8 0 4 3 6 7 7l6 2c3 1 5 2 5 4 0 3-4 5-8 5-4 1-8 0-11-3l-3 5c4 3 9 4 14 4 6 0 16-3 16-11 0-6-6-8-10-9l-6-2c-2-1-3-2-3-3 0-2 3-3 6-3 3-1 7 0 9 2l3-5z" fill="url(#g)" filter="url(#glow)"/>
</svg>
